# xmcd CD database file
#
# Track frame offsets:
#	150
#	13370
#	25898
#	42118
#	56490
#	81200
#	92843
#	108325
#	123698
#	137258
#	153573
#	163173
#	176405
#	191260
#	206850
#	220195
#	233383
#	248270
#	263148
#
# Disc length: 3651 seconds
#
# Revision: 0
# Processed by: cddbd v1.5.2PL0 Copyright (c) Steve Scherf et al.
# Submitted via: CDex 1.51
#
DISCID=f80e4113
DTITLE=Brown, Les - The Bands of Renown
DYEAR=1993
DGENRE=Jazz
TTITLE0=I'm forever Blowing Bubbles
TTITLE1=Cherokee
TTITLE2=I've got a Right to Sing the Blues
TTITLE3=You forgot your Gloves
TTITLE4=Happy Hooligan
TTITLE5=Doodle doo doo
TTITLE6=Our Love is here to stay
TTITLE7=Skylark
TTITLE8=Someone to Watch over me
TTITLE9=Nagasaki
TTITLE10=Mambo #5
TTITLE11=The Man that got away
TTITLE12=Lullaby in Rhytm
TTITLE13=What does it take
TTITLE14=Invitation
TTITLE15=Begin the Beguine
TTITLE16=Autumn Nocturne
TTITLE17=Laura
TTITLE18=Flyin' Home
EXTD=YEAR: 1993
EXTT0=
EXTT1=
EXTT2=
EXTT3=
EXTT4=
EXTT5=
EXTT6=
EXTT7=
EXTT8=
EXTT9=
EXTT10=
EXTT11=
EXTT12=
EXTT13=
EXTT14=
EXTT15=
EXTT16=
EXTT17=
EXTT18=
PLAYORDER=
